<svg xmlns="http://www.w3.org/2000/svg" viewBox="0 0 520 180" fill="none">
  <rect width="520" height="180" rx="24" fill="#F5F3ED"/>
  <g transform="translate(30,24)">
    <path d="M84 110C58 110 40 93 40 71C40 45 61 28 91 28C113 28 132 38 142 54L116 66C111 58 101 53 90 53C75 53 66 61 66 72C66 83 75 90 88 90C99 90 107 86 110 80H84V61H144V71C144 95 121 110 84 110Z" fill="#3C99DC"/>
    <path d="M192 111C159 111 137 92 137 66C137 40 159 22 193 22C226 22 248 40 248 66C248 92 226 111 192 111ZM192 89C209 89 221 79 221 66C221 53 209 43 192 43C175 43 164 53 164 66C164 79 175 89 192 89Z" fill="#2DAF64"/>
    <circle cx="192" cy="66" r="10" fill="#F7F0B4"/>
    <path d="M190 57L193.7 63.3L201 64.5L195.6 69.5L196.8 76.5L190 73L183.2 76.5L184.4 69.5L179 64.5L186.3 63.3L190 57Z" fill="#F6D347"/>
    <path d="M255 108L273 26H297L336 77L344 26H369L351 108H327L288 57L280 108H255Z" fill="#FF3B3F"/>
    <path d="M376 108L394 26H421L403 108H376Z" fill="#FF3B3F"/>
    <path d="M454 110C426 110 407 98 401 81L426 74C430 84 439 89 451 89C460 89 466 86 466 81C466 76 462 73 448 70L438 68C415 64 403 53 403 37C403 18 421 6 448 6C473 6 490 16 496 32L471 39C468 30 459 26 448 26C439 26 434 29 434 34C434 39 438 41 451 44L462 46C485 50 497 61 497 78C497 98 478 110 454 110Z" fill="#DD6B9E"/>
  </g>
  <path d="M305 145C332 152 362 154 393 149C411 147 427 143 442 136" stroke="#F4D45D" stroke-width="8" stroke-linecap="round"/>
  <text x="328" y="160" font-family="Verdana, Arial, sans-serif" font-size="26" font-weight="700" fill="#F4D45D" transform="rotate(-7 328 160)">product digital</text>
</svg>
